<?xml version="1.0" standalone="no"?>
<!DOCTYPE svg PUBLIC "-//W3C//DTD SVG 20010904//EN"
 "http://www.w3.org/TR/2001/REC-SVG-20010904/DTD/svg10.dtd">
<svg version="1.0" xmlns="http://www.w3.org/2000/svg"
 width="316.000000pt" height="196.000000pt" viewBox="0 0 316.000000 196.000000"
 preserveAspectRatio="xMidYMid meet">

<g transform="translate(0.000000,196.000000) scale(0.100000,-0.100000)"
fill="#000000" stroke="none">
<path d="M1310 1947 c-36 -28 -76 -96 -166 -277 -138 -280 -287 -510 -330
-510 -12 0 -154 27 -315 60 -162 34 -302 59 -312 58 -23 -4 -178 -131 -169
-139 4 -3 160 -36 347 -74 187 -38 342 -70 344 -71 2 -2 -21 -36 -51 -76 -30
-40 -83 -116 -118 -168 -247 -370 -411 -580 -452 -580 -11 0 -35 -7 -54 -16
-91 -43 14 -154 146 -154 68 0 114 25 183 99 88 96 254 334 331 476 59 110
169 290 218 359 13 18 18 17 148 -9 74 -14 211 -45 304 -68 l169 -42 19 -45
c11 -25 36 -88 54 -140 95 -261 213 -492 285 -557 22 -19 128 -53 168 -53 12
0 22 13 30 43 39 131 325 577 371 577 3 0 129 -25 279 -55 267 -53 274 -54
296 -37 26 21 125 127 125 135 0 2 -21 8 -46 12 -55 8 -25 2 -316 60 -131 27
-238 52 -238 57 0 5 22 41 48 81 142 211 290 481 332 606 11 33 20 81 20 105
0 57 -40 149 -74 171 -41 27 -60 12 -100 -80 -139 -323 -411 -845 -441 -845
-12 0 -582 114 -626 125 -20 5 -31 18 -42 48 -8 23 -45 128 -82 232 -37 105
-89 238 -115 298 l-48 107 5 124 c6 123 6 124 -20 150 -28 28 -80 35 -107 13z
m43 -657 c91 -214 108 -260 99 -260 -5 0 -98 18 -207 40 -109 22 -200 40 -202
40 -15 0 6 46 54 113 148 214 176 249 183 236 5 -8 37 -84 73 -169z m677 -561
c113 -22 206 -42 208 -44 14 -14 -223 -355 -247 -355 -13 0 -201 402 -201 431
0 14 23 11 240 -32z"/>
</g>
</svg>
